<?xml version="1.0" encoding="utf-8"?>
<!-- Generator: Adobe Illustrator 17.1.0, SVG Export Plug-In . SVG Version: 6.00 Build 0)  -->
<!DOCTYPE svg PUBLIC "-//W3C//DTD SVG 1.1//EN" "http://www.w3.org/Graphics/SVG/1.1/DTD/svg11.dtd">
<svg class="svgclass" version="1.1" xmlns="http://www.w3.org/2000/svg" xmlns:xlink="http://www.w3.org/1999/xlink" x="0px" y="0px"
	 viewBox="0 0 319.5 336" enable-background="new 0 0 319.5 336" xml:space="preserve">
	 <style>
	 	.shape {  
		  stroke-dasharray: 280;
		  stroke-dashoffset: 280;
		  animation: dash 1.5s forwards;
		  -webkit-animation: dash 1s forwards;
		  animation-timing-function: cubic-bezier(0.195, 0.010, 0.940, 1.030);
		  -webkit-animation-timing-function: cubic-bezier(0.195, 0.010, 0.940, 1.030);
		  animation-delay: 0.25s;
		  -webkit-animation-delay: 0.25s;
		}
		circle{
			
		 	opacity: .0;
		  animation: dots 0.2s forwards;
		  -webkit-animation: dots 0.2s forwards;
		  animation-timing-function: cubic-bezier(0.195, 0.010, 0.940, 1.030);
		  -webkit-animation-timing-function: cubic-bezier(0.195, 0.010, 0.940, 1.030);
		  animation-delay: 0.2s;
		  -webkit-animation-delay: 0.2s;
		}
 
		.shape:nth-child(7n+1) {
			animation-delay: 0.2s;
		  -webkit-animation-delay: 0.2s;
		}
		.shape:nth-child(7n+2) {
			animation-delay: 0.5s;
		  -webkit-animation-delay: 0.5s;
		}
		.shape:nth-child(7n+3) {
			animation-delay: 1.7s;
		  -webkit-animation-delay: 1.7s;
		}
		.shape:nth-child(7n+4) {
			animation-delay: 2.1s;
		  -webkit-animation-delay: 2.1s;
		}
			.shape:nth-child(7n+5) {
			animation-delay: 3.4s;
		  -webkit-animation-delay: 3.4s;
		}
		.shape:nth-child(7n+6) {
			animation-delay: 3.7s;
		  -webkit-animation-delay: 3.7s;
		}
		.shape:nth-child(7n+7) {
			animation-delay: 3.9s;
		  -webkit-animation-delay: 3.9s;
		}
		circle:nth-child(12n+1){animation: dots 0.2s forwards;
			animation-delay: 0.1s;
		  -webkit-animation-delay: 0.1s;
		}
		circle:nth-child(12n+2){animation: dots 0.2s forwards;
			animation-delay: 0.5s;
		  -webkit-animation-delay: 0.5s;
		}
		circle:nth-child(12n+3){animation: dots 0.2s forwards;
			animation-delay: 0.1s;
		  -webkit-animation-delay: 0.1s;
		}
		circle:nth-child(12n+4){animation: dots 0.2s forwards;
			animation-delay: 0.15s;
		  -webkit-animation-delay: 0.15s;
		}
		circle:nth-child(12n+5){animation: dots 0.2s forwards;
			animation-delay: 0.20s;
		  -webkit-animation-delay: 0.20s;
		}
		circle:nth-child(12n+6){animation: dots 0.2s forwards;
			animation-delay: 0.25s;
		  -webkit-animation-delay: 0.25s;
		}
		circle:nth-child(12n+7){animation: dots 0.2s forwards;
			animation-delay: 0.30s;
		  -webkit-animation-delay: 0.30s;
		}
		circle:nth-child(12n+8){animation: dots 0.2s forwards;
			animation-delay: 0.35s;
		  -webkit-animation-delay: 0.35s;
		}
		circle:nth-child(12n+9){animation: dots 0.2s forwards;
			animation-delay: 0.40s;
		  -webkit-animation-delay: 0.40s;
		}
		circle:nth-child(12n+10){animation: dots 0.2s forwards;
			animation-delay: 0.45s;
		  -webkit-animation-delay: 0.45s;
		}
		circle:nth-child12n+11){animation: dots 0.2s forwards;
			animation-delay: 0.50s;
		  -webkit-animation-delay: 0.50s;
		}
		circle:nth-child(12n+12){animation: dots 0.2s forwards;
			animation-delay: 0.55s;
		  -webkit-animation-delay:  0.55s;
		}
		@keyframes dash {
		  to {
		    stroke-dashoffset: 0;
		  }
		}
		@-webkit-keyframes dash {
		  to {
		    stroke-dashoffset: 0;
		  }
		}

		
		@keyframes dots {
		  to {
		    opacity: 1;
		  }
		}
		@-webkit-keyframes dots {
		  to {
		    opacity: 1;
		  }
		}
	 </style>
<g id="lines">
	<g id="Layer_2">
	</g>
	<g>
		
			<line  class="shape" fill="none" stroke="#3E688D" stroke-width="0.75" stroke-linejoin="round" stroke-miterlimit="10" x1="146" y1="7" x2="146" y2="43.1"/>
		<polyline fill="none" stroke="#3E688D" class="shape" stroke-width="0.75" stroke-linejoin="round" stroke-miterlimit="10" points="130.1,90.8 
			129.7,67.1 134,63.5 134,31.1 		"/>
		<polyline fill="none" stroke="#3E688D" class="shape" stroke-width="0.75" stroke-linejoin="round" stroke-miterlimit="10" points="142.1,22.9 
			142.1,30.7 137.8,34.9 137.8,62.8 		"/>
		<polyline fill="none" stroke="#3E688D" class="shape" stroke-width="0.75" stroke-linejoin="round" stroke-miterlimit="10" points="142.2,38.9 
			142.2,59.1 146,62.9 146,75 		"/>
		<polyline fill="none" stroke="#3E688D" class="shape" stroke-width="0.75" stroke-linejoin="round" stroke-miterlimit="10" points="150.1,27 
			150.1,46.8 145.9,50.9 145.9,58.7 		"/>
		<polyline fill="none" stroke="#3E688D" class="shape" stroke-width="0.75" stroke-linejoin="round" stroke-miterlimit="10" points="157.9,18.9 
			157.9,30.8 154,34.7 154,66.8 		"/>
		<polyline fill="none" stroke="#3E688D" class="shape" stroke-width="0.75" stroke-linejoin="round" stroke-miterlimit="10" points="158,35 
			158,114.9 166,122.9 		"/>
		<polyline fill="none" stroke="#3E688D" class="shape"  stroke-width="0.75" stroke-linejoin="round" stroke-miterlimit="10" points="162,14.8 
			162,110.8 169.7,118.5 169.7,131 		"/>
		<polyline fill="none" stroke="#3E688D" class="shape"  stroke-width="0.75" stroke-linejoin="round" stroke-miterlimit="10" points="130.6,98.2 
			133.8,94.9 133.8,69.3 136.2,66.9 139.2,66.9 141.8,69.5 141.8,107.3 145.2,110.9 153.9,110.9 		"/>
		<polyline fill="none" stroke="#3E688D" class="shape"  stroke-width="0.75" stroke-linejoin="round" stroke-miterlimit="10" points="150,78.9 
			146,83 146,99 149.9,102.8 		"/>
		
			<line fill="none" stroke="#3E688D" class="shape" stroke-width="0.75" stroke-linejoin="round" stroke-miterlimit="10" x1="150.1" y1="82.9" x2="150.1" y2="98.9"/>
		<polyline fill="none" stroke="#3E688D" class="shape" stroke-width="0.75" stroke-linejoin="round" stroke-miterlimit="10" points="150.1,50.9 
			150.1,71 154,74.9 154,102.8 149.9,106.9 146.1,106.9 		"/>
		<polyline fill="none" stroke="#3E688D" class="shape" stroke-width="0.75" stroke-linejoin="round" stroke-miterlimit="10" points="138,71 
			138,118.8 130.1,126.7 130.1,139.1 		"/>
		<path fill="none" stroke="#3E688D" class="shape" stroke-width="0.75" stroke-linejoin="round" stroke-miterlimit="10" d="M126,99.2l7.9,7.9
			l0,7.8c0-0.1,0.2,0,0.2,0.1l-8.2,8.2v11.6"/>
		<polyline fill="none" stroke="#3E688D" class="shape" stroke-width="0.75" stroke-linejoin="round" stroke-miterlimit="10" points="128.8,107.3 
			126.1,110.1 126.1,114.7 122,118.8 122,139 125.9,142.9 125.9,147 		"/>
		
			<line fill="none" stroke="#3E688D" class="shape" stroke-width="0.75" stroke-linejoin="round" stroke-miterlimit="10" x1="114.1" y1="139" x2="117.9" y2="135.2"/>
		
			<line fill="none" stroke="#3E688D" class="shape" stroke-width="0.75" stroke-linejoin="round" stroke-miterlimit="10" x1="86" y1="143" x2="101.9" y2="143"/>
		<polyline fill="none" stroke="#3E688D" class="shape" stroke-width="0.75" stroke-linejoin="round" stroke-miterlimit="10" points="70.1,151 
			114,151 117.9,155 		"/>
		<polyline fill="none" stroke="#3E688D" class="shape" stroke-width="0.75" stroke-linejoin="round" stroke-miterlimit="10" points="90.1,159.1 
			114,159.1 117.8,162.9 121.9,162.9 		"/>
		<polyline fill="none" stroke="#3E688D" class="shape" stroke-width="0.75" stroke-linejoin="round" stroke-miterlimit="10" points="53.9,147 
			105.9,147 109.7,143.3 118.1,143.3 122,147.2 122,150.8 		"/>
		<polyline fill="none" stroke="#3E688D" class="shape" stroke-width="0.75" stroke-linejoin="round" stroke-miterlimit="10" points="62.1,162.9 
			77.9,162.9 81.8,166.9 93.8,166.9 		"/>
		<polyline fill="none" stroke="#3E688D" class="shape" stroke-width="0.75" stroke-linejoin="round" stroke-miterlimit="10" points="74.1,167 
			78.1,171 97.8,171 101.8,167 113.7,167 		"/>
		<polyline fill="none" stroke="#3E688D" class="shape" stroke-width="0.75" stroke-linejoin="round" stroke-miterlimit="10" points="134.1,126.9 
			137.8,130.7 137.8,134.9 		"/>
		
			<line fill="none" stroke="#3E688D" class="shape" stroke-width="0.75" stroke-linejoin="round" stroke-miterlimit="10" x1="142.1" y1="122.9" x2="142.1" y2="131.1"/>
		<polyline fill="none" stroke="#3E688D" class="shape" stroke-width="0.75" stroke-linejoin="round" stroke-miterlimit="10" points="142.1,118.9 
			145.7,115.3 150,115.3 161.9,127.2 161.9,135 		"/>
		<polyline fill="none" stroke="#3E688D" class="shape" stroke-width="0.75" stroke-linejoin="round" stroke-miterlimit="10" points="150.1,118.9 
			145.9,123.1 145.9,128.2 148.5,130.9 154,130.9 157.9,127 		"/>
		
			<line fill="none" stroke="#3E688D" class="shape" stroke-width="0.75" stroke-linejoin="round" stroke-miterlimit="10" x1="150.2" y1="126.8" x2="153.9" y2="123.1"/>
		<polyline fill="none" stroke="#3E688D" class="shape" stroke-width="0.75" stroke-linejoin="round" stroke-miterlimit="10" points="145.9,134.9 
			153.8,134.9 158,139.1 		"/>
		<polyline fill="none" stroke="#3E688D" class="shape" stroke-width="0.75" stroke-linejoin="round" stroke-miterlimit="10" points="125.9,62.8 
			125.9,90.9 122,94.8 122,110.6 117.9,114.8 117.9,126.7 105.9,138.7 81.7,138.7 77.6,142.9 72.1,142.9 49.9,142.9 45.9,146.9 
			14.2,146.9 		"/>
		<polyline fill="none" stroke="#3E688D" class="shape" stroke-width="0.75" stroke-linejoin="round" stroke-miterlimit="10" points="6,150.9 
			61.7,150.9 65.6,154.8 109.8,154.8 		"/>
		<polyline fill="none" stroke="#3E688D" class="shape" stroke-width="0.75" stroke-linejoin="round" stroke-miterlimit="10" points="18.3,162.9 
			53.8,162.9 57.5,159.2 82,159.2 85.8,162.9 109.9,162.9 		"/>
		<polyline fill="none" stroke="#3E688D" class="shape" stroke-width="0.75" stroke-linejoin="round" stroke-miterlimit="10" points="50.1,186.9 
			57.9,179.1 66.1,179.1 69.9,182.9 		"/>
		<polyline fill="none" stroke="#3E688D" class="shape" stroke-width="0.75" stroke-linejoin="round" stroke-miterlimit="10" points="86.1,183 
			101.9,183 109.8,190.9 		"/>
		<polyline fill="none" stroke="#3E688D" class="shape" stroke-width="0.75" stroke-linejoin="round" stroke-miterlimit="10" points="110,182.9 
			113.8,182.9 117.9,187 117.9,190.8 		"/>
		<polyline fill="none" stroke="#3E688D" class="shape" stroke-width="0.75" stroke-linejoin="round" stroke-miterlimit="10" points="114.1,186.9 
			114.1,194.9 117.8,198.6 117.8,206.6 121.9,210.7 		"/>
		<polyline fill="none" stroke="#3E688D" class="shape" stroke-width="0.75" stroke-linejoin="round" stroke-miterlimit="10" points="122,195.2 
			122,202.9 125.9,206.7 125.9,219 122,222.9 122,262.9 		"/>
		<polyline fill="none" stroke="#3E688D" class="shape" stroke-width="0.75" stroke-linejoin="round" stroke-miterlimit="10" points="78.2,218.8 
			86,210.9 86,206.9 93.8,199.2 101.9,199.2 109.8,207 109.8,214.8 113.9,218.9 		"/>
		<polyline fill="none" stroke="#3E688D" class="shape" stroke-width="0.75" stroke-linejoin="round" stroke-miterlimit="10" points="97.9,203.1 
			105.8,211 105.8,222.8 101.8,226.8 97.9,226.8 90.1,234.6 90.1,238.6 77.9,250.8 		"/>
		<polyline fill="none" stroke="#3E688D" class="shape" stroke-width="0.75" stroke-linejoin="round" stroke-miterlimit="10" points="90.2,254.8 
			101.8,243.1 101.8,239.2 109.8,231.2 109.8,223.1 		"/>
		<polyline fill="none" stroke="#3E688D" class="shape" stroke-width="0.75" stroke-linejoin="round" stroke-miterlimit="10" points="102.2,250.9 
			114.1,238.9 114.1,226.9 117.9,223.1 117.9,215.2 113.9,211.3 113.9,203 98.2,187.2 69.9,187.2 66.1,191.1 		"/>
		<polyline fill="none" stroke="#3E688D" class="shape" stroke-width="0.75" stroke-linejoin="round" stroke-miterlimit="10" points="78.2,182.9 
			81.9,179.2 105.6,179.2 109.6,175.1 114,175.1 125.9,187 125.9,198.9 129.9,202.9 129.9,214.7 		"/>
		<polyline fill="none" stroke="#3E688D" class="shape" stroke-width="0.75" stroke-linejoin="round" stroke-miterlimit="10" points="45.9,222.9 
			65.8,203 69.9,203 81.7,191.2 94,191.2 97.8,195 		"/>
		<polyline fill="none" stroke="#3E688D" class="shape" stroke-width="0.75" stroke-linejoin="round" stroke-miterlimit="10" points="9.9,166.9 
			65.7,166.9 73.6,174.9 101.9,174.9 105.7,171.1 117.9,171.1 130,183.2 130,195.1 133.8,198.9 133.8,250.9 137.7,254.8 
			137.7,278.8 		"/>
		
			<line fill="none" stroke="#3E688D" class="shape" stroke-width="0.75" stroke-linejoin="round" stroke-miterlimit="10" x1="138" y1="211" x2="138" y2="246.8"/>
		<polyline fill="none" stroke="#3E688D" class="shape" stroke-width="0.75" stroke-linejoin="round" stroke-miterlimit="10" points="133.9,191.1 
			137.8,195 137.8,203 141.9,207 141.9,307 		"/>
		<polyline fill="none" stroke="#3E688D" class="shape" stroke-width="0.75" stroke-linejoin="round" stroke-miterlimit="10" points="142.2,191.2 
			142.2,199.2 145.8,202.8 145.8,211 		"/>
		<polyline fill="none" stroke="#3E688D" class="shape" stroke-width="0.75" stroke-linejoin="round" stroke-miterlimit="10" points="153.9,187 
			153.9,190.7 150,194.6 150,214.8 145.9,218.9 145.9,315.1 		"/>
		
			<line fill="none" stroke="#3E688D" class="shape" stroke-width="0.75" stroke-linejoin="round" stroke-miterlimit="10" x1="153.9" y1="263.5" x2="153.9" y2="298.9"/>
		
			<line fill="none" stroke="#3E688D" class="shape" stroke-width="0.75" stroke-linejoin="round" stroke-miterlimit="10" x1="158.1" y1="258.8" x2="158.1" y2="270.9"/>
		
			<line fill="none" stroke="#3E688D" class="shape" stroke-width="0.75" stroke-linejoin="round" stroke-miterlimit="10" x1="150" y1="223.1" x2="150" y2="243"/>
		<polyline fill="none" stroke="#3E688D" class="shape" stroke-width="0.75" stroke-linejoin="round" stroke-miterlimit="10" points="153.9,199.2 
			153.9,247 150.1,250.8 		"/>
		<polyline fill="none" stroke="#3E688D" class="shape" stroke-width="0.75" stroke-linejoin="round" stroke-miterlimit="10" points="158.1,195 
			158.1,250.6 150.1,258.7 150.1,286.7 		"/>
		
			<line fill="none" stroke="#3E688D" class="shape" stroke-width="0.75" stroke-linejoin="round" stroke-miterlimit="10" x1="162" y1="187" x2="162" y2="198.7"/>
		<polyline fill="none" stroke="#3E688D" class="shape" stroke-width="0.75" stroke-linejoin="round" stroke-miterlimit="10" points="166.1,190.9 
			166.1,202.6 161.9,206.8 161.9,279.2 157.9,283.3 157.9,326.7 		"/>
		<polyline fill="none" stroke="#3E688D" class="shape" stroke-width="0.75" stroke-linejoin="round" stroke-miterlimit="10" points="170.1,191 
			170.1,206.5 166.1,210.5 166.1,255.1 169.8,258.8 169.8,303.1 		"/>
		
			<line fill="none" stroke="#3E688D" class="shape" stroke-width="0.75" stroke-linejoin="round" stroke-miterlimit="10" x1="174" y1="227.1" x2="174" y2="246.6"/>
		<polyline fill="none" stroke="#3E688D" class="shape" stroke-width="0.75" stroke-linejoin="round" stroke-miterlimit="10" points="173.9,219 
			178,223.1 178,270.8 		"/>
		<polyline fill="none" stroke="#3E688D" class="shape" stroke-width="0.75" stroke-linejoin="round" stroke-miterlimit="10" points="178.3,194.9 
			173.8,199.3 173.8,210.9 170,214.7 170,251 173.7,254.7 173.7,282.8 		"/>
		<polyline fill="none" stroke="#3E688D" class="shape" stroke-width="0.75" stroke-linejoin="round" stroke-miterlimit="10" points="182,207 
			178,211 178,215 181.8,218.8 181.8,258.8 		"/>
		<polyline fill="none" stroke="#3E688D" class="shape" stroke-width="0.75" stroke-linejoin="round" stroke-miterlimit="10" points="178,187.1 
			181.8,190.9 181.8,202.7 186,207 186,263 181.9,267.1 181.9,290.9 		"/>
		<polyline fill="none" stroke="#3E688D" class="shape" stroke-width="0.75" stroke-linejoin="round" stroke-miterlimit="10" points="186,182.9 
			189.8,186.7 189.8,194.8 186,198.6 		"/>
		<polyline fill="none" stroke="#3E688D" class="shape" stroke-width="0.75" stroke-linejoin="round" stroke-miterlimit="10" points="206.4,182.8 
			198.2,182.8 193.9,187 193.9,198.7 190.1,202.5 190.1,211.1 		"/>
		<polyline fill="none" stroke="#3E688D" class="shape" stroke-width="0.75" stroke-linejoin="round" stroke-miterlimit="10" points="202,187.4 
			197.9,191.5 197.9,206.7 201.9,210.7 201.9,230.9 		"/>
		<polyline fill="none" stroke="#3E688D" class="shape" stroke-width="0.75" stroke-linejoin="round" stroke-miterlimit="10" points="194,207 
			194,214.9 190,218.9 190,254.8 194,258.9 194,274.7 		"/>
		<polyline fill="none" stroke="#3E688D" class="shape" stroke-width="0.75" stroke-linejoin="round" stroke-miterlimit="10" points="198,218.9 
			198,234.9 209.9,246.8 209.9,250.9 222,263 222,270.9 		"/>
		<polyline fill="none" stroke="#3E688D" class="shape" stroke-width="0.75" stroke-linejoin="round" stroke-miterlimit="10" points="202.1,202.5 
			202.1,194.8 209.8,187.1 229.8,187.1 		"/>
		<polyline fill="none" stroke="#3E688D" class="shape" stroke-width="0.75" stroke-linejoin="round" stroke-miterlimit="10" points="213.9,222.9 
			205.9,214.9 205.9,199 213.7,191.2 225.8,191.2 229.6,194.9 241.9,194.9 249.9,202.9 261.9,202.9 		"/>
		<polyline fill="none" stroke="#3E688D" class="shape" stroke-width="0.75" stroke-linejoin="round" stroke-miterlimit="10" points="233.9,191.1 
			245.9,191.1 249.7,194.9 261.8,194.9 273.9,207 		"/>
		<polyline fill="none" stroke="#3E688D" class="shape" stroke-width="0.75" stroke-linejoin="round" stroke-miterlimit="10" points="214,198.8 
			217.9,194.9 222.2,194.9 226.1,198.8 237.7,198.8 249.7,210.8 253.7,210.8 269.7,226.8 		"/>
		<polyline fill="none" stroke="#3E688D" class="shape" stroke-width="0.75" stroke-linejoin="round" stroke-miterlimit="10" points="210,202.9 
			221.9,214.8 221.9,218.8 229.9,226.9 229.9,234.8 		"/>
		<polyline fill="none" stroke="#3E688D" class="shape" stroke-width="0.75" stroke-linejoin="round" stroke-miterlimit="10" points="210.1,211.1 
			217.8,218.8 217.8,230.9 241.7,254.7 		"/>
		<polyline fill="none" stroke="#3E688D" class="shape" stroke-width="0.75" stroke-linejoin="round" stroke-miterlimit="10" points="222.1,202.9 
			222.1,207.2 230,215 230,219 249.8,238.8 		"/>
		<polyline fill="none" stroke="#3E688D" class="shape" stroke-width="0.75" stroke-linejoin="round" stroke-miterlimit="10" points="193.8,179 
			209.8,179 213.7,182.8 257.8,182.8 		"/>
		
			<line fill="none" stroke="#3E688D" class="shape" stroke-width="0.75" stroke-linejoin="round" stroke-miterlimit="10" x1="226" y1="175" x2="249.9" y2="175"/>
		<polyline fill="none" stroke="#3E688D" class="shape" stroke-width="0.75" stroke-linejoin="round" stroke-miterlimit="10" points="206.1,174.8 
			217.9,174.8 221.7,171 286,171 		"/>
		<polyline fill="none" stroke="#3E688D" class="shape" stroke-width="0.75" stroke-linejoin="round" stroke-miterlimit="10" points="221.8,179 
			253.8,179 257.8,175 294.1,175 		"/>
		<polyline fill="none" stroke="#3E688D" class="shape" stroke-width="0.75" stroke-linejoin="round" stroke-miterlimit="10" points="214.1,170.8 
			217.9,167 301.8,167 		"/>
		<polyline fill="none" stroke="#3E688D" class="shape" stroke-width="0.75" stroke-linejoin="round" stroke-miterlimit="10" points="202.1,171 
			205.7,171 213.8,162.9 281.5,162.9 		"/>
		
			<line fill="none" stroke="#3E688D" class="shape" stroke-width="0.75" stroke-linejoin="round" stroke-miterlimit="10" x1="202.1" y1="162.9" x2="209.9" y2="162.9"/>
		<polyline fill="none" stroke="#3E688D" class="shape" stroke-width="0.75" stroke-linejoin="round" stroke-miterlimit="10" points="198,155.1 
			201.9,155.1 205.7,158.9 310,158.9 		"/>
		<polyline fill="none" stroke="#3E688D" class="shape" stroke-width="0.75" stroke-linejoin="round" stroke-miterlimit="10" points="202.1,151 
			206,151 209.9,154.9 298,154.9 		"/>
		<polyline fill="none" stroke="#3E688D" class="shape" stroke-width="0.75" stroke-linejoin="round" stroke-miterlimit="10" points="218.3,146.8 
			246.1,146.8 249.9,143.1 254.3,143.1 		"/>
		<polyline fill="none" stroke="#3E688D" class="shape" stroke-width="0.75" stroke-linejoin="round" stroke-miterlimit="10" points="314,147.1 
			281.9,147.1 278,151.1 214,151.1 206.1,143.1 190,143.1 186,139.1 182.2,139.1 178,134.9 178,127 173.9,122.9 173.9,107 
			177.9,103 		"/>
		<polyline fill="none" stroke="#3E688D" class="shape" stroke-width="0.75" stroke-linejoin="round" stroke-miterlimit="10" points="194.3,139 
			209.9,139 213.8,142.9 		"/>
		<polyline fill="none" stroke="#3E688D" class="shape" stroke-width="0.75" stroke-linejoin="round" stroke-miterlimit="10" points="214.1,135.2 
			221.9,143 233.6,143 		"/>
		<polyline fill="none" stroke="#3E688D" class="shape" stroke-width="0.75" stroke-linejoin="round" stroke-miterlimit="10" points="222,135.1 
			225.7,138.8 237.9,138.8 241.9,142.9 		"/>
		<polyline fill="none" stroke="#3E688D" class="shape" stroke-width="0.75" stroke-linejoin="round" stroke-miterlimit="10" points="189.9,123 
			189.9,126.8 194,130.9 210,130.9 		"/>
		<polyline fill="none" stroke="#3E688D" class="shape" stroke-width="0.75" stroke-linejoin="round" stroke-miterlimit="10" points="201.9,115 
			201.9,119 205.8,122.9 210,122.9 		"/>
		<polyline fill="none" stroke="#3E688D" class="shape" stroke-width="0.75" stroke-linejoin="round" stroke-miterlimit="10" points="198.1,115 
			198.1,123.1 201.9,126.9 213.9,126.9 217.9,130.9 229.9,130.9 		"/>
		<polyline fill="none" stroke="#3E688D" class="shape" stroke-width="0.75" stroke-linejoin="round" stroke-miterlimit="10" points="186,119.1 
			186,131.1 189.9,135 201.9,135 		"/>
		<polyline fill="none" stroke="#3E688D" class="shape" stroke-width="0.75" stroke-linejoin="round" stroke-miterlimit="10" points="234.1,134.8 
			242,134.8 250,126.9 250,123 269.8,103.2 		"/>
		<polyline fill="none" stroke="#3E688D" class="shape" stroke-width="0.75" stroke-linejoin="round" stroke-miterlimit="10" points="214,119.1 
			221.8,126.9 226.2,126.9 229.9,123.1 237.7,123.1 269.8,91.1 		"/>
		<polyline fill="none" stroke="#3E688D" class="shape" stroke-width="0.75" stroke-linejoin="round" stroke-miterlimit="10" points="222.3,119 
			225.9,119 233.8,111.1 		"/>
		<polyline fill="none" stroke="#3E688D" class="shape" stroke-width="0.75" stroke-linejoin="round" stroke-miterlimit="10" points="206.2,118.8 
			209.7,115.2 213.6,115.2 229.8,98.9 		"/>
		<polyline fill="none" stroke="#3E688D" class="shape" stroke-width="0.75" stroke-linejoin="round" stroke-miterlimit="10" points="214,102.9 
			217.9,102.9 229.6,91.2 		"/>
		<polyline fill="none" stroke="#3E688D" class="shape" stroke-width="0.75" stroke-linejoin="round" stroke-miterlimit="10" points="222.3,114.8 
			234.2,102.9 238,102.9 253.8,87.1 		"/>
		<polyline fill="none" stroke="#3E688D" class="shape" stroke-width="0.75" stroke-linejoin="round" stroke-miterlimit="10" points="210.1,98.8 
			206,94.7 206,90.9 233.8,63.1 		"/>
		<polyline fill="none" stroke="#3E688D" class="shape" stroke-width="0.75" stroke-linejoin="round" stroke-miterlimit="10" points="218,71 
			202,87 202,99 209.9,106.9 213.8,106.9 		"/>
		<polyline fill="none" stroke="#3E688D" class="shape" stroke-width="0.75" stroke-linejoin="round" stroke-miterlimit="10" points="206.1,111 
			198,102.9 198,79.4 		"/>
		<polyline fill="none" stroke="#3E688D" class="shape" stroke-width="0.75" stroke-linejoin="round" stroke-miterlimit="10" points="194.1,95.3 
			194.1,107 198,111 		"/>
		<polyline fill="none" stroke="#3E688D" class="shape" stroke-width="0.75" stroke-linejoin="round" stroke-miterlimit="10" points="190,87.2 
			190,110.9 194,114.9 194,122.7 		"/>
		<polyline fill="none" stroke="#3E688D" class="shape" stroke-width="0.75" stroke-linejoin="round" stroke-miterlimit="10" points="174.2,98.9 
			177.9,95.2 181.9,99.2 181.9,106.9 178,110.7 178,118.8 		"/>
		
			<line fill="none" stroke="#3E688D" class="shape" stroke-width="0.75" stroke-linejoin="round" stroke-miterlimit="10" x1="181.9" y1="59.1" x2="181.9" y2="90.9"/>
		
			<line fill="none" stroke="#3E688D" class="shape" stroke-width="0.75" stroke-linejoin="round" stroke-miterlimit="10" x1="170.1" y1="79" x2="170.1" y2="86.8"/>
		<polyline fill="none" stroke="#3E688D" class="shape" stroke-width="0.75" stroke-linejoin="round" stroke-miterlimit="10" points="181.9,130.8 
			181.9,115 185.9,111.1 185.9,82.8 190,78.7 190,23.3 		"/>
		
			<line fill="none" stroke="#3E688D" class="shape" stroke-width="0.75" stroke-linejoin="round" stroke-miterlimit="10" x1="174.1" y1="26.8" x2="174.1" y2="82.9"/>
		<polyline fill="none" stroke="#3E688D" class="shape" stroke-width="0.75" stroke-linejoin="round" stroke-miterlimit="10" points="170.1,51 
			170.1,70.7 166,74.7 166,102.7 		"/>
		<polyline fill="none" stroke="#3E688D" class="shape" stroke-width="0.75" stroke-linejoin="round" stroke-miterlimit="10" points="177.9,35.2 
			177.9,86.9 169.9,94.9 169.9,106.8 166,110.8 		"/>
		<polyline fill="none" stroke="#3E688D" class="shape" stroke-width="0.75" stroke-linejoin="round" stroke-miterlimit="10" points="198,55 
			198,70.8 194,74.8 194,90.8 		"/>
		<polyline fill="none" stroke="#3E688D" class="shape" stroke-width="0.75" stroke-linejoin="round" stroke-miterlimit="10" points="214.1,50.9 
			201.9,63.1 201.9,78.8 		"/>
		<polyline fill="none" stroke="#3E688D" class="shape" stroke-width="0.75" stroke-linejoin="round" stroke-miterlimit="10" points="38,102.9 
			45.9,110.8 49.7,110.8 62,123 		"/>
		<polyline fill="none" stroke="#3E688D" class="shape" stroke-width="0.75" stroke-linejoin="round" stroke-miterlimit="10" points="70,79 
			93.9,102.9 93.9,106.9 101.9,114.8 101.9,118.8 93.7,127 85.9,127 		"/>
		<polyline fill="none" stroke="#3E688D" class="shape" stroke-width="0.75" stroke-linejoin="round" stroke-miterlimit="10" points="58.1,111 
			65.9,118.8 65.9,122.8 70,126.9 77.9,126.9 81.9,130.8 97.8,130.8 106,122.6 106,111.1 101.9,107 101.9,95.1 94.1,87.3 		"/>
		<polyline fill="none" stroke="#3E688D" class="shape" stroke-width="0.75" stroke-miterlimit="10" points="106.1,91 106.1,102.9 109.9,106.7 
			109.9,118.9 		"/>
		<polyline fill="none" stroke="#3E688D" class="shape" stroke-width="0.75" stroke-miterlimit="10" points="98.1,75.1 109.8,86.8 109.8,98.9 
			113.8,102.8 		"/>
		<path fill="none" stroke="#3E688D" class="shape" stroke-width="0.75" stroke-linejoin="round" stroke-miterlimit="10" d="M106.1,58.8v16.3
			l7.8,7.8V95l3.9,3.9v8l-3.7,3.7v11.9l-12.4,12.4H74l-3.8-3.8l-8.4,0l-11.6-12"/>
		<polyline fill="none" stroke="#3E688D" class="shape" stroke-width="0.75" stroke-linejoin="round" stroke-miterlimit="10" points="25.8,155.2 
			50.1,155.2 53.9,159 		"/>
	</g>
</g>
<g id="dots" class="dots" fill="#1E2A47" stroke="#43718e" stroke-width="0.5">
	<circle cx="142.1" cy="22.9" r="1.1"/>
	<circle cx="134" cy="31" r="1.1"/>
	<circle cx="142.1" cy="39" r="1.1"/>
	<circle cx="150.1" cy="26.9" r="1.1"/>
	<circle cx="158" cy="18.9" r="1.1"/>
	<circle cx="162" cy="14.9" r="1.1"/>
	<circle cx="158" cy="35" r="1.1"/>
	<circle cx="146" cy="43.1" r="1.1"/>
	<circle cx="150.1" cy="50.9" r="1.1"/>
	<circle cx="146" cy="59" r="1.1"/>
	<circle cx="137.8" cy="63" r="1.1"/>
	<circle cx="126" cy="63" r="1.1"/>
	<circle cx="138" cy="71" r="1.1"/>
	<circle cx="146" cy="75" r="1.1"/>
	<circle cx="150" cy="79" r="1.1"/>
	<circle cx="150" cy="82.9" r="1.1"/>
	<circle cx="146" cy="7" r="1.1"/>
	<circle cx="174" cy="26.9" r="1.1"/>
	<circle cx="190" cy="22.9" r="1.1"/>
	<circle cx="178" cy="35" r="1.1"/>
	<circle cx="170" cy="50.9" r="1.1"/>
	<circle cx="154" cy="67.1" r="1.1"/>
	<circle cx="170" cy="79" r="1.1"/>
	<circle cx="170" cy="87" r="1.1"/>
	<circle cx="174" cy="83.1" r="1.1"/>
	<circle cx="182" cy="91" r="1.1"/>
	<circle cx="190" cy="87" r="1.1"/>
	<circle cx="198" cy="79" r="1.1"/>
	<circle cx="194" cy="91" r="1.1"/>
	<circle cx="194" cy="95.1" r="1.1"/>
	<circle cx="174" cy="99.1" r="1.1"/>
	<circle cx="178.1" cy="102.9" r="1.1"/>
	<circle cx="154.2" cy="111" r="1.1"/>
	<circle cx="166" cy="111" r="1.1"/>
	<circle cx="150" cy="99.1" r="1.1"/>
	<circle cx="150" cy="102.9" r="1.1"/>
	<circle cx="146" cy="106.9" r="1.1"/>
	<circle cx="142" cy="119" r="1.1"/>
	<circle cx="150" cy="119" r="1.1"/>
	<circle cx="154.2" cy="123.1" r="1.1"/>
	<circle cx="150" cy="127" r="1.1"/>
	<circle cx="158.1" cy="127" r="1.1"/>
	<circle cx="162" cy="135.1" r="1.1"/>
	<circle cx="166" cy="123.1" r="1.1"/>
	<circle cx="169.7" cy="131.1" r="1.1"/>
	<circle cx="166" cy="103.1" r="1.1"/>
	<circle cx="142" cy="123.1" r="1.1"/>
	<circle cx="142" cy="131.1" r="1.1"/>
	<circle cx="178.1" cy="119" r="1.1"/>
	<circle cx="134" cy="127" r="1.1"/>
	<circle cx="138" cy="135.1" r="1.1"/>
	<circle cx="146" cy="135.1" r="1.1"/>
	<circle cx="158.1" cy="139.1" r="1.1"/>
	<circle cx="130" cy="139.1" r="1.1"/>
	<circle cx="126" cy="135.1" r="1.1"/>
	<circle cx="118" cy="135.1" r="1.1"/>
	<circle cx="114" cy="139.1" r="1.1"/>
	<circle cx="126" cy="147.2" r="1.1"/>
	<circle cx="122" cy="151" r="1.1"/>
	<circle cx="128.7" cy="107.2" r="1.1"/>
	<circle cx="126" cy="99.1" r="1.1"/>
	<circle cx="130.6" cy="98.2" r="1.1"/>
	<circle cx="130" cy="91.1" r="1.1"/>
	<circle cx="114" cy="103" r="1.1"/>
	<circle cx="106" cy="91.1" r="1.1"/>
	<circle cx="109.9" cy="119" r="1.1"/>
	<circle cx="102" cy="143.1" r="1.1"/>
	<circle cx="86" cy="143.1" r="1.1"/>
	<circle cx="118" cy="155.2" r="1.1"/>
	<circle cx="110.1" cy="154.9" r="1.1"/>
	<circle cx="90.1" cy="159" r="1.1"/>
	<circle cx="70" cy="151" r="1.1"/>
	<circle cx="54" cy="147.1" r="1.1"/>
	<circle cx="54" cy="159" r="1.1"/>
	<circle cx="62" cy="163.1" r="1.1"/>
	<circle cx="94" cy="167" r="1.1"/>
	<circle cx="74.1" cy="167" r="1.1"/>
	<circle cx="26" cy="155" r="1.1"/>
	<circle cx="14" cy="147" r="1.1"/>
	<circle cx="18" cy="163.1" r="1.1"/>
	<circle cx="10" cy="167" r="1.1"/>
	<circle cx="6" cy="151" r="1.1"/>
	<circle cx="50" cy="187" r="1.1"/>
	<circle cx="70" cy="183" r="1.1"/>
	<circle cx="78" cy="183" r="1.1"/>
	<circle cx="86" cy="183" r="1.1"/>
	<circle cx="65.9" cy="191.1" r="1.1"/>
	<circle cx="98" cy="195.1" r="1.1"/>
	<circle cx="110" cy="191" r="1.1"/>
	<circle cx="110" cy="183" r="1.1"/>
	<circle cx="118" cy="191" r="1.1"/>
	<circle cx="114" cy="187" r="1.1"/>
	<circle cx="122.1" cy="195.1" r="1.1"/>
	<circle cx="122.1" cy="211.1" r="1.1"/>
	<circle cx="98" cy="203.1" r="1.1"/>
	<circle cx="78" cy="219.1" r="1.1"/>
	<circle cx="114.1" cy="219.1" r="1.1"/>
	<circle cx="110" cy="222.9" r="1.1"/>
	<circle cx="102" cy="251.1" r="1.1"/>
	<circle cx="90" cy="254.9" r="1.1"/>
	<circle cx="130" cy="215" r="1.1"/>
	<circle cx="133.9" cy="191" r="1.1"/>
	<circle cx="142" cy="191" r="1.1"/>
	<circle cx="146" cy="211.1" r="1.1"/>
	<circle cx="138" cy="211.1" r="1.1"/>
	<circle cx="153.9" cy="199" r="1.1"/>
	<circle cx="158.1" cy="195" r="1.1"/>
	<circle cx="162" cy="199" r="1.1"/>
	<circle cx="150.1" cy="223.1" r="1.1"/>
	<circle cx="153.9" cy="187" r="1.1"/>
	<circle cx="162" cy="187" r="1.1"/>
	<circle cx="166" cy="191" r="1.1"/>
	<circle cx="170" cy="191" r="1.1"/>
	<circle cx="178" cy="187" r="1.1"/>
	<circle cx="178.2" cy="195" r="1.1"/>
	<circle cx="182" cy="207.1" r="1.1"/>
	<circle cx="174" cy="219" r="1.1"/>
	<circle cx="185.9" cy="199" r="1.1"/>
	<circle cx="190.1" cy="211.1" r="1.1"/>
	<circle cx="174" cy="227" r="1.1"/>
	<circle cx="198" cy="219" r="1.1"/>
	<circle cx="194" cy="207.1" r="1.1"/>
	<circle cx="202" cy="231.1" r="1.1"/>
	<circle cx="213.9" cy="223.1" r="1.1"/>
	<circle cx="210" cy="211.1" r="1.1"/>
	<circle cx="202" cy="203" r="1.1"/>
	<circle cx="210" cy="203" r="1.1"/>
	<circle cx="222" cy="203" r="1.1"/>
	<circle cx="214" cy="199" r="1.1"/>
	<circle cx="202" cy="187" r="1.1"/>
	<circle cx="186.1" cy="183" r="1.1"/>
	<circle cx="206.2" cy="183" r="1.1"/>
	<circle cx="193.8" cy="179" r="1.1"/>
	<circle cx="206" cy="174.9" r="1.1"/>
	<circle cx="202" cy="171.1" r="1.1"/>
	<circle cx="202" cy="163" r="1.1"/>
	<circle cx="210" cy="163" r="1.1"/>
	<circle cx="214" cy="171.1" r="1.1"/>
	<circle cx="222" cy="179" r="1.1"/>
	<circle cx="226" cy="175" r="1.1"/>
	<circle cx="198.1" cy="155" r="1.1"/>
	<circle cx="202" cy="150.9" r="1.1"/>
	<circle cx="218.1" cy="147" r="1.1"/>
	<circle cx="214" cy="143" r="1.1"/>
	<circle cx="194.1" cy="138.9" r="1.1"/>
	<circle cx="242.1" cy="143" r="1.1"/>
	<circle cx="234" cy="143" r="1.1"/>
	<circle cx="222.1" cy="135.1" r="1.1"/>
	<circle cx="234" cy="135.1" r="1.1"/>
	<circle cx="214" cy="135.1" r="1.1"/>
	<circle cx="230.1" cy="131" r="1.1"/>
	<circle cx="210" cy="131" r="1.1"/>
	<circle cx="202" cy="135.1" r="1.1"/>
	<circle cx="210" cy="122.9" r="1.1"/>
	<circle cx="214" cy="119.1" r="1.1"/>
	<circle cx="206.1" cy="119" r="1.1"/>
	<circle cx="202" cy="114.9" r="1.1"/>
	<circle cx="198" cy="114.9" r="1.1"/>
	<circle cx="193.9" cy="122.9" r="1.1"/>
	<circle cx="189.9" cy="123" r="1.1"/>
	<circle cx="186" cy="119" r="1.1"/>
	<circle cx="181.9" cy="131" r="1.1"/>
	<circle cx="198" cy="111.1" r="1.1"/>
	<circle cx="206.1" cy="111.1" r="1.1"/>
	<circle cx="214" cy="107" r="1.1"/>
	<circle cx="214" cy="103" r="1.1"/>
	<circle cx="210" cy="98.9" r="1.1"/>
	<circle cx="230" cy="99.1" r="1.1"/>
	<circle cx="230" cy="91" r="1.1"/>
	<circle cx="218" cy="70.9" r="1.1"/>
	<circle cx="234" cy="62.9" r="1.1"/>
	<circle cx="214" cy="50.9" r="1.1"/>
	<circle cx="201.9" cy="79" r="1.1"/>
	<circle cx="198" cy="55" r="1.1"/>
	<circle cx="181.9" cy="59.1" r="1.1"/>
	<circle cx="222.1" cy="119.1" r="1.1"/>
	<circle cx="222.1" cy="115" r="1.1"/>
	<circle cx="234" cy="111" r="1.1"/>
	<circle cx="254" cy="87" r="1.1"/>
	<circle cx="270" cy="91" r="1.1"/>
	<circle cx="270" cy="103" r="1.1"/>
	<circle cx="254.1" cy="143" r="1.1"/>
	<circle cx="314.1" cy="147.1" r="1.1"/>
	<circle cx="298.1" cy="155.1" r="1.1"/>
	<circle cx="310.2" cy="158.9" r="1.1"/>
	<circle cx="282" cy="163" r="1.1"/>
	<circle cx="302.1" cy="167.1" r="1.1"/>
	<circle cx="286.2" cy="171" r="1.1"/>
	<circle cx="294.2" cy="175" r="1.1"/>
	<circle cx="250.1" cy="175" r="1.1"/>
	<circle cx="258.1" cy="183" r="1.1"/>
	<circle cx="230" cy="187.1" r="1.1"/>
	<circle cx="233.9" cy="191.1" r="1.1"/>
	<circle cx="262" cy="203" r="1.1"/>
	<circle cx="274" cy="207" r="1.1"/>
	<circle cx="270" cy="227" r="1.1"/>
	<circle cx="250" cy="239" r="1.1"/>
	<circle cx="230" cy="235" r="1.1"/>
	<circle cx="241.9" cy="255" r="1.1"/>
	<circle cx="222" cy="271.1" r="1.1"/>
	<circle cx="194" cy="275" r="1.1"/>
	<circle cx="182" cy="259" r="1.1"/>
	<circle cx="178" cy="271.1" r="1.1"/>
	<circle cx="174" cy="283" r="1.1"/>
	<circle cx="158" cy="271.1" r="1.1"/>
	<circle cx="158" cy="259" r="1.1"/>
	<circle cx="154" cy="263.1" r="1.1"/>
	<circle cx="150.1" cy="287" r="1.1"/>
	<circle cx="137.7" cy="279" r="1.1"/>
	<circle cx="154.1" cy="299" r="1.1"/>
	<circle cx="170" cy="303" r="1.1"/>
	<circle cx="182" cy="291" r="1.1"/>
	<circle cx="142" cy="307" r="1.1"/>
	<circle cx="146" cy="315.1" r="1.1"/>
	<circle cx="158" cy="327.1" r="1.1"/>
	<circle cx="174" cy="246.9" r="1.1"/>
	<circle cx="150.1" cy="251.1" r="1.1"/>
	<circle cx="150.1" cy="243.3" r="1.1"/>
	<circle cx="137.9" cy="246.9" r="1.1"/>
	<circle cx="122" cy="263.1" r="1.1"/>
	<circle cx="78" cy="251.1" r="1.1"/>
	<circle cx="46" cy="223" r="1.1"/>
	<circle cx="122" cy="163.1" r="1.1"/>
	<circle cx="110" cy="163.1" r="1.1"/>
	<circle cx="114" cy="167" r="1.1"/>
	<circle cx="86" cy="127" r="1.1"/>
	<circle cx="62.1" cy="123.2" r="1.1"/>
	<circle cx="58" cy="110.9" r="1.1"/>
	<circle cx="50.1" cy="119" r="1.1"/>
	<circle cx="38" cy="103" r="1.1"/>
	<circle cx="70" cy="79.1" r="1.1"/>
	<circle cx="94" cy="87" r="1.1"/>
	<circle cx="98" cy="75" r="1.1"/>
	<circle cx="106" cy="59" r="1.1"/>
</g>
</svg> 
